# xmcd CD database file
#
# Track frame offsets:
#	150
#	12602
#	26412
#	38247
#	51492
#	64245
#	77095
#	91537
#	105277
#	120155
#	133965
#	148120
#	159300
#	173330
#	187137
#	200212
#	212480
#	226667
#	239975
#	251667
#	265037
#	278665
#	291400
#	305307
#	321162
#
# Disc length: 4484 seconds
#
# Revision: 0
# Processed by: cddbd v1.4PL0 Copyright (c) Steve Scherf et al.
# Submitted via: CDex 1.50
#
DISCID=65118219
DTITLE=Various Artist - Ramblin' Thomas and The Dallas Blues Singers (1928-1932)
DYEAR=1992
DGENRE=Blues
TTITLE0=So Lonesome - Willard Ramblin' Thomas
TTITLE1=Hard To Rule Woman Blues - Willard Ramblin' Thomas
TTITLE2=Lock And Key Blues - Willard Ramblin' Thomas
TTITLE3=Sawmill Moan - Willard Ramblin' Thomas
TTITLE4=No Baby Blues - Willard Ramblin' Thomas
TTITLE5=Ramblin' Mind Blues - Willard Ramblin' Thomas
TTITLE6=No Job Blues - Willard Ramblin' Thomas
TTITLE7=Back Gnawin' Blues - Willard Ramblin' Thomas
TTITLE8=Jig Head Blues - Willard Ramblin' Thomas
TTITLE9=Hard Dallas Blues - Willard Ramblin' Thomas
TTITLE10=Ramblin' Man - Willard Ramblin' Thomas
TTITLE11=Poor Boy Blues - Willard Ramblin' Thomas
TTITLE12=Good Time Blues - Willard Ramblin' Thomas
TTITLE13=No Way Of Living Blues - Willard Ramblin' Thomas
TTITLE14=Ground Hog Blues - Willard Ramblin' Thomas
TTITLE15=Shake It Gal - Willard Ramblin' Thomas
TTITLE16=Down In Texas Blues - Jesse 'Babyface' Thomas
TTITLE17=My Heart's A Rolling Stone - Jesse 'Babyface' Thomas
TTITLE18=Blue Goose Blues - Jesse 'Babyface' Thomas
TTITLE19=No Good Woman Blues - Jesse 'Babyface' Thomas
TTITLE20=Good Night - Jesse 'Babyface' Thomas
TTITLE21=Cryin' For You Blues - Sammy Hill
TTITLE22=Needin' My Woman Blues - Sammy Hill
TTITLE23=Waking Blues - Otis Harris
TTITLE24=You'll Like My Loving - Otis Harris
EXTD=YEAR: 1992
EXTT0=
EXTT1=
EXTT2=
EXTT3=
EXTT4=
EXTT5=
EXTT6=
EXTT7=
EXTT8=
EXTT9=
EXTT10=
EXTT11=
EXTT12=
EXTT13=
EXTT14=
EXTT15=
EXTT16=
EXTT17=
EXTT18=
EXTT19=
EXTT20=
EXTT21=
EXTT22=
EXTT23=
EXTT24=
PLAYORDER=
